<?xml version="1.0" standalone="no"?><!DOCTYPE svg PUBLIC "-//W3C//DTD SVG 1.1//EN" "http://www.w3.org/Graphics/SVG/1.1/DTD/svg11.dtd"><svg t="1724937452660" class="icon" viewBox="0 0 1666 1024" version="1.1" xmlns="http://www.w3.org/2000/svg" p-id="10240" xmlns:xlink="http://www.w3.org/1999/xlink" width="325.390625" height="200"><path d="M652.929005 1008.633607s17.322393 6.027827 29.65965 1.902723c11.37448-3.805447 15.100012 3.268879 25.382329 5.327625a81.322393 81.322393 0 0 0 50.292781-5.662504c-0.102747-5.578785-2.751338-13.84802-6.849804-14.080152a65.933167 65.933167 0 0 1-40.299679-15.221787 36.669283 36.669283 0 0 1-15.55286-33.487929h-40.927577s-2.633369 44.816744-1.70484 61.222024" fill="#CFDBEF" p-id="10241"></path><path d="M652.837674 1005.699608a94.911642 94.911642 0 0 0 29.4846 2.640979c12.447616-0.544179 8.486146 2.462124 23.456772 4.688311s47.491973-0.791533 51.929124-4.12891a10.719943 10.719943 0 0 1-1.385183 8.34915 70.488286 70.488286 0 0 1-19.407777 3.337376c-8.189321 0.547984-28.563682 1.853252-35.847306-1.362349a21.089785 21.089785 0 0 0-22.589131-2.108218c-17.885599 2.835058-25.416577-1.902723-25.416578-1.902723z" fill="#445A82" p-id="10242"></path><path d="M718.603401 1014.315139a89.629682 89.629682 0 0 1-12.596028-0.742063 55.814484 55.814484 0 0 1-12.839576-3.280294 25.854204 25.854204 0 0 0-12.573196-1.845642 101.88322 101.88322 0 0 1-27.901534-1.784754 0.559401 0.559401 0 0 1-0.380545-0.688786 0.555595 0.555595 0 0 1 0.673564-0.410989 100.04519 100.04519 0 0 0 27.559044 1.765728 27.090974 27.090974 0 0 1 13.010822 1.929361 54.650018 54.650018 0 0 0 12.615055 3.223213c14.669996 2.180521 47.33595-1.031276 51.666548-4.30396a0.559401 0.559401 0 0 1 0.669759 0.89428c-3.539065 2.663813-23.829706 5.255322-39.903913 5.255322" fill="#FFFFFF" p-id="10243"></path><path d="M729.578309 1003.785468a46.677607 46.677607 0 0 1-5.358069-0.273992 0.559401 0.559401 0 0 1-0.490902-0.624093 0.567012 0.567012 0 0 1 0.624093-0.487098 122.600071 122.600071 0 0 0 28.38102-2.207159 0.567012 0.567012 0 0 1 0.654537 0.441432 0.559401 0.559401 0 0 1-0.441432 0.662148 148.153645 148.153645 0 0 1-23.365441 2.488762" fill="#374F8C" p-id="10244"></path><path d="M675.027233 1006.350339a0.559401 0.559401 0 0 1-0.555595-0.521346c-1.518373-22.600547-20.362944-25.90748-20.553217-25.937924a0.559401 0.559401 0 0 1-0.46807-0.64312 0.570817 0.570817 0 0 1 0.646926-0.46807c0.197883 0.038054 19.902485 3.497205 21.485551 26.973005a0.559401 0.559401 0 0 1-0.517541 0.597455h-0.038054" fill="#374F8C" p-id="10245"></path><path d="M720.239743 1009.497443a0.540373 0.540373 0 0 1-0.129385 0 0.555595 0.555595 0 0 1-0.410988-0.673564c1.480319-6.244738 0.875253-15.141872-10.415507-22.07159-21.485551-13.174456-19.202283-25.888453-19.080509-26.425021a0.547984 0.547984 0 0 1 0.639315-0.449042 0.555595 0.555595 0 0 1 0.449042 0.669758c-0.022833 0.12558-2.184326 12.504697 18.57819 25.237722 12.48567 7.660364 12.200262 17.885599 10.917827 23.281722a0.555595 0.555595 0 0 1-0.540374 0.430015" fill="#374F8C" p-id="10246"></path><path d="M689.91414 973.456059s6.922107-5.266738 11.294565-4.829112c2.092996 0.2093 1.674396 3.15091 1.674397 3.15091a20.888096 20.888096 0 0 0-10.251873 4.616007c-2.051136 0.958973-4.296349-0.943751-2.717089-2.937805" fill="#374F8C" p-id="10247"></path><path d="M695.386372 979.362112a17.969319 17.969319 0 0 1 9.58592-5.289571c3.188964-0.266381 2.705672 3.550482 2.705672 3.550482a22.524438 22.524438 0 0 0-9.894161 4.94708 2.020692 2.020692 0 0 1-2.397431-3.207991" fill="#374F8C" p-id="10248"></path><path d="M702.392199 983.875372s6.138185-5.171602 9.273873-4.121299c3.044357 1.016054 2.511595 3.15091 2.511595 3.15091a13.319063 13.319063 0 0 0-9.410869 4.185991 2.020692 2.020692 0 0 1-2.374599-3.215602" fill="#374F8C" p-id="10249"></path><path d="M687.033417 965.822333s6.849804-4.543703 11.872993-3.4934c3.135688 0.654537 0.555595 3.383042 0.555595 3.383042a25.401356 25.401356 0 0 0-10.453562 3.603758 2.020692 2.020692 0 0 1-1.975026-3.4934" fill="#374F8C" p-id="10250"></path><path d="M511.202759 1008.633607s-17.322393 6.027827-29.65965 1.902723c-11.37448-3.805447-15.100012 3.268879-25.382329 5.327625a81.322393 81.322393 0 0 1-50.288976-5.662504c0.102747-5.578785 2.751338-13.84802 6.849804-14.080152a65.933167 65.933167 0 0 0 40.299679-15.221787 36.669283 36.669283 0 0 0 15.55286-33.487929h40.938994s2.637174 44.816744 1.70484 61.222024" fill="#CFDBEF" p-id="10251"></path><path d="M511.29409 1005.699608a94.911642 94.911642 0 0 1-29.4846 2.640979c-12.447616-0.544179-8.486146 2.462124-23.456773 4.688311s-47.491973-0.791533-51.940539-4.12891a10.719943 10.719943 0 0 0 1.385182 8.34915 70.488286 70.488286 0 0 0 19.407777 3.337376c8.189321 0.547984 28.563682 1.853252 35.847307-1.362349a21.089785 21.089785 0 0 1 22.596741-2.108218c17.885599 2.835058 25.416577-1.902723 25.416578-1.902723z" fill="#445A82" p-id="10252"></path><path d="M445.532168 1014.315139a89.629682 89.629682 0 0 0 12.596028-0.742063 55.814484 55.814484 0 0 0 12.835771-3.265073 25.854204 25.854204 0 0 1 12.557974-1.860863 101.88322 101.88322 0 0 0 27.905339-1.78856 0.559401 0.559401 0 0 0 0.380545-0.688786 0.555595 0.555595 0 0 0-0.658342-0.407183 100.04519 100.04519 0 0 1-27.56285 1.7467 27.090974 27.090974 0 0 0-13.00321 1.948389 54.650018 54.650018 0 0 1-12.615056 3.223213c-14.669996 2.176715-47.320728-1.031276-51.666547-4.30396a0.559401 0.559401 0 0 0-0.76109 0.110358 0.563206 0.563206 0 0 0 0.110358 0.783922c3.539065 2.663813 23.829706 5.255322 39.903913 5.255322" fill="#FFFFFF" p-id="10253"></path><path d="M434.553455 1003.785468a46.677607 46.677607 0 0 0 5.358068-0.273992 0.559401 0.559401 0 0 0 0.487098-0.624093 0.567012 0.567012 0 0 0-0.620288-0.487098 122.600071 122.600071 0 0 1-28.377215-2.207159 0.567012 0.567012 0 0 0-0.654537 0.441432 0.559401 0.559401 0 0 0 0.433821 0.662148 148.153645 148.153645 0 0 0 23.365442 2.488762" fill="#374F8C" p-id="10254"></path><path d="M489.104531 1006.350339a0.559401 0.559401 0 0 0 0.540373-0.521346c1.522179-22.600547 20.378166-25.90748 20.568439-25.937924a0.559401 0.559401 0 0 0 0.464264-0.64312 0.570817 0.570817 0 0 0-0.639315-0.46807c-0.197883 0.038054-19.910096 3.497205-21.489356 26.973005a0.559401 0.559401 0 0 0 0.51754 0.597455h0.038055" fill="#374F8C" p-id="10255"></path><path d="M443.888215 1009.497443a0.540373 0.540373 0 0 0 0.129385 0 0.555595 0.555595 0 0 0 0.410989-0.673564c-1.480319-6.244738-0.875253-15.141872 10.415507-22.07159 21.489357-13.174456 19.194672-25.888453 19.084314-26.425021a0.547984 0.547984 0 0 0-0.654537-0.449042 0.555595 0.555595 0 0 0-0.433821 0.658342c0.022833 0.12558 2.184326 12.504697-18.570579 25.237721-12.48567 7.660364-12.200262 17.885599-10.917826 23.281722a0.555595 0.555595 0 0 0 0.540374 0.430016" fill="#374F8C" p-id="10256"></path><path d="M474.22143 973.456059s-6.910691-5.266738-11.294566-4.829112c-2.092996 0.2093-1.674396 3.15091-1.674396 3.15091a20.888096 20.888096 0 0 1 10.244262 4.616007c2.054941 0.955167 4.296349-0.955167 2.720894-2.937805" fill="#374F8C" p-id="10257"></path><path d="M468.749197 979.362112a17.969319 17.969319 0 0 0-9.589725-5.289571c-3.188964-0.266381-2.705672 3.550482-2.705672 3.550482a22.524438 22.524438 0 0 1 9.894161 4.94708 2.020692 2.020692 0 0 0 2.393625-3.207991" fill="#374F8C" p-id="10258"></path><path d="M461.739565 983.875372s-6.13438-5.171602-9.270068-4.121299c-3.044357 1.016054-2.511595 3.15091-2.511595 3.15091a13.319063 13.319063 0 0 1 9.41087 4.185991 2.020692 2.020692 0 0 0 2.370793-3.227019" fill="#374F8C" p-id="10259"></path><path d="M477.086931 965.822333s-6.838387-4.543703-11.857772-3.4934c-3.135688 0.654537-0.555595 3.383042-0.555595 3.383042a25.401356 25.401356 0 0 1 10.453562 3.603758 2.020692 2.020692 0 0 0 1.959805-3.4934" fill="#374F8C" p-id="10260"></path><path d="M494.108693 36.920442s28.571293-25.576406 37.084077-29.846117S567.435843-2.7247 570.274706 1.52979s-31.676537 34.629564-30.732787 38.43501c20.328695 0 30.995362-0.380545 14.460697 6.724224s-25.998811 12.367701-37.818527 12.367701S486.07159 53.063147 494.108693 36.920442" fill="#FFE0BD" p-id="10261"></path><path d="M609.269117 133.719586l-1.484125-43.831133-60.42288-1.685813-4.832917 41.814247a4.619812 4.619812 0 0 1-3.489594 4.307765c-9.369009 2.344155-14.338923 3.166132-14.338923 3.166132s5.864193 36.532287 54.19717 36.532287 50.677132-30.641456 50.677131-30.641456-8.790582-3.044357-16.998929-5.403734a4.589369 4.589369 0 0 1-3.310739-4.258295" fill="#FED6AA" p-id="10262"></path><path d="M465.263408 959.041027c-0.243549 3.672256 9.258651 7.298846 21.226781 8.097991s21.866096-1.522179 22.109645-5.19824-9.254846-7.295041-21.222976-8.097991-21.866096 1.525984-22.11345 5.19824" fill="#FFB69C" p-id="10263"></path><path d="M469.034606 958.964919c-0.178856 2.705672 7.740278 5.437983 17.687715 6.088714s18.159591-0.985611 18.338447-3.691283-7.736473-5.422761-17.68391-6.088715-18.159591 0.993222-18.342252 3.691284" fill="#E86B6B" p-id="10264"></path><path d="M480.234035 959.269354c-0.12558 1.19491 2.823641 2.488762 6.587228 2.884529s6.914496-0.262576 7.040076-1.449875-2.823641-2.484957-6.587228-2.880723-6.910691 0.262576-7.040076 1.446069" fill="#FFFFFF" p-id="10265"></path><path d="M540.668332 90.470686c-7.504341 2.846474-13.201094-7.637531-15.080985-12.093709-3.36782-7.9648-0.064693-16.74777 3.797836-18.448805a7.83922 7.83922 0 0 1 7.005827 0.85242 30.550125 30.550125 0 0 1 6.640504 18.368891 18.315614 18.315614 0 0 1-2.363182 11.321203" fill="#F9CAA1" p-id="10266"></path><path d="M613.550244 94.097277c7.184683 3.580925 13.88988-6.286598 16.203591-10.533476 4.140326-7.572839 1.720062-16.641218-1.952194-18.722797a7.83922 7.83922 0 0 0-7.066714 0.152218 30.531098 30.531098 0 0 0-8.413842 17.615412 18.330836 18.330836 0 0 0 1.229159 11.488643" fill="#F9CAA1" p-id="10267"></path><path d="M579.381139 12.850993c-31.288381-1.564039-48.481389 22.284695-44.584611 54.440718 1.902723 15.80402 1.83042 15.488167 4.608395 31.261744 1.263408 7.173267 15.328339 30.98014 36.532287 32.04186 19.837793 0.993222 35.341182-20.773933 37.293376-27.943394a243.308836 243.308836 0 0 0 7.1961-31.079082c5.826139-31.870615-7.656558-57.05506-38.941135-58.615294z" fill="#FFE0BD" p-id="10268"></path><path d="M577.193008 131.603758c-0.449043 0-0.905696 0-1.36235-0.034249a38.248543 38.248543 0 0 1-24.442383-11.990962 0.913307 0.913307 0 0 1 1.28624-1.297657 36.463789 36.463789 0 0 0 23.247473 11.458199 34.210964 34.210964 0 0 0 23.780236-9.821857 0.913307 0.913307 0 0 1 1.217743 1.366155 36.596979 36.596979 0 0 1-23.726959 10.320371" fill="#F8A58D" p-id="10269"></path><path d="M581.409442 13.691997h-0.034249l-2.104412-0.106553a0.673564 0.673564 0 0 1 0.068498-1.343322l2.100607 0.106552a0.673564 0.673564 0 0 1-0.030444 1.343323" fill="#EA967D" p-id="10270"></path><path d="M599.747889 76.135569h-0.060887a1.217743 1.217743 0 0 1-1.141634-1.27863 5.144964 5.144964 0 0 0-0.787727-3.078606 2.38221 2.38221 0 0 0-1.807587-1.168272 2.408848 2.408848 0 0 0-1.91414 0.981805 5.141158 5.141158 0 0 0-1.076941 2.98347 1.217743 1.217743 0 1 1-2.431681-0.117969 7.511951 7.511951 0 0 1 1.643953-4.42954 4.749197 4.749197 0 0 1 3.896777-1.860863 4.810084 4.810084 0 0 1 3.698894 2.233797 7.523368 7.523368 0 0 1 1.194911 4.566536 1.217743 1.217743 0 0 1-1.213938 1.141634" fill="#303753" p-id="10271"></path><path d="M562.462124 74.274706h-0.060887a1.217743 1.217743 0 0 1-1.141634-1.27863c0.110358-2.226186-1.073136-4.185991-2.583898-4.243073s-2.892139 1.735284-3.002498 3.957664a1.206327 1.206327 0 0 1-1.274824 1.141634 1.217743 1.217743 0 0 1-1.156856-1.259603 5.944108 5.944108 0 0 1 5.54073-6.290403 6.0088 6.0088 0 0 1 4.893804 6.811749 1.217743 1.217743 0 0 1-1.213937 1.141634" fill="#303753" p-id="10272"></path><path d="M581.458913 91.931978h-0.045665l-7.158045-0.361518a0.917113 0.917113 0 0 1-0.867642-0.958972 0.928529 0.928529 0 0 1 0.958973-0.867642l6.221905 0.312046 0.487097-20.827208a0.928529 0.928529 0 0 1 0.156023-0.487098l4.418124-6.602449a0.905696 0.905696 0 0 1 1.267213-0.25116 0.917113 0.917113 0 0 1 0.247354 1.271019l-4.269711 6.377929-0.506124 21.496967a0.913307 0.913307 0 0 1-0.913307 0.89428" fill="#F8A58D" p-id="10273"></path><path d="M580.069925 111.731716h-0.045665l-7.264598-0.365323a0.913307 0.913307 0 0 1-0.867641-0.958972 0.924724 0.924724 0 0 1 0.958972-0.871448l7.268403 0.380545a0.917113 0.917113 0 0 1-0.045665 1.83042" fill="#F8A58D" p-id="10274"></path><path d="M588.655013 97.636342c-2.720894 7.100963-17.227257 10.700916-24.050423-1.172078l24.050423 1.172078" fill="#FFFFFF" p-id="10275"></path><path d="M577.208229 105.110239a14.460697 14.460697 0 0 1-7.641336-2.123439 16.709716 16.709716 0 0 1-5.753835-6.065882 0.917113 0.917113 0 0 1 0.821976-1.373766l24.050422 1.172077a0.917113 0.917113 0 0 1 0.806755 1.244381 12.660721 12.660721 0 0 1-11.028184 7.097158 15.59472 15.59472 0 0 1-1.255798 0.049471z m-10.875966-7.660364a13.21251 13.21251 0 0 0 10.894994 5.829944c0.361517 0 0.730646 0 1.092163-0.04186a11.732192 11.732192 0 0 0 8.889523-4.756808z" fill="#F8A58D" p-id="10276"></path><path d="M544.740159 34.545844a177.832323 177.832323 0 0 0-3.371625 19.788322c-0.197883 0.597455-2.861696 4.402902-2.861696 4.402901l-2.819836 15.020098a254.397907 254.397907 0 0 1-4.524676-52.564633 8.81722 8.81722 0 0 1 6.001189-8.34915 218.851231 218.851231 0 0 0 12.386729-4.593174 84.587466 84.587466 0 0 1 35.059579-6.632893c39.850636 2.469735 45.182067 30.565347 38.887858 59.48674-1.324295 6.088714-2.218575 10.114877-4.106077 16.835296l-2.169104-15.267452-3.782614-4.627423a157.766203 157.766203 0 0 0-1.377572-20.100368z" fill="#303753" p-id="10277"></path><path d="M562.00547 61.507433a47.857296 47.857296 0 0 1-11.066238-1.545012l-3.599953 1.035082a1.221548 1.221548 0 0 1-0.669758-2.336545l3.927221-1.141633a1.217743 1.217743 0 0 1 0.658342 0c3.638007 1.012249 13.88988 2.968248 17.615412-0.106553a1.225354 1.225354 0 0 1 1.545011 1.902723 13.440837 13.440837 0 0 1-8.410037 2.203354" fill="#303753" p-id="10278"></path><path d="M608.6983 64.129385a1.213937 1.213937 0 0 1-0.449043-0.087525l-3.523844-1.408015c-2.549649 0.21691-15.453918 1.187299-18.943513-1.579261a1.217743 1.217743 0 0 1 1.522179-1.902723c2.184326 1.723867 11.895826 1.552622 17.505054 1.042692a1.225354 1.225354 0 0 1 0.559401 0.079915l3.805446 1.522178a1.221548 1.221548 0 0 1-0.449042 2.355572" fill="#303753" p-id="10279"></path><path d="M545.17398 437.120228a0.646926 0.646926 0 0 1-0.098941-1.282435c0.513735-0.079914 0.841004-0.235938 0.898085-0.430016 0.16744-0.567012-0.928529-1.952194-1.754311-2.698061-8.645975-5.917469-16.648829-21.94601-13.50553-32.928529 5.772862-20.294446-6.431205-28.468546-6.552978-28.54846a0.646926 0.646926 0 1 1 0.692591-1.084552c0.133191 0.087525 13.128791 8.782971 7.081936 29.986918-2.987276 10.472589 4.707337 25.831371 13.071709 31.562374 0.506124 0.445237 2.663813 2.496373 2.191937 4.075633-0.213105 0.719229-0.863836 1.172078-1.936972 1.339517h-0.098942" fill="#EA967D" p-id="10280"></path><path d="M554.284219 439.186586a0.646926 0.646926 0 0 1-0.197883-1.259603c0.669759-0.21691 1.48793-0.605066 1.583066-1.210132 0.152218-0.939945-1.244381-2.359377-2.161494-3.044357a41.943632 41.943632 0 0 1-12.162207-28.369604 0.707813 0.707813 0 0 1 0.658342-0.631704 0.64312 0.64312 0 0 1 0.627899 0.658342 40.512784 40.512784 0 0 0 11.682721 27.368771c0.243549 0.171245 2.930194 2.203354 2.610536 4.220241-0.159829 1.004638-0.989416 1.758116-2.458318 2.233797a0.63551 0.63551 0 0 1-0.182662 0.034249" fill="#EA967D" p-id="10281"></path><path d="M549.847069 438.227613a0.646926 0.646926 0 0 1-0.171245-1.267213c0.460459-0.129385 1.027471-0.380545 1.118801-0.76109 0.136996-0.597455-0.707813-1.586871-1.114996-1.948388a40.410037 40.410037 0 0 1-14.122012-29.294328 0.64312 0.64312 0 0 1 0.64312-0.64312 0.646926 0.646926 0 0 1 0.643121 0.650731 39.085741 39.085741 0 0 0 13.657748 28.308717c0.220716 0.194078 1.902723 1.731478 1.545011 3.230824-0.186467 0.802949-0.863836 1.377572-2.028303 1.701035a0.646926 0.646926 0 0 1-0.171245 0.022832" fill="#EA967D" p-id="10282"></path><path d="M511.963848 56.11892l-8.821025-23.411107s-44.759662 16.23784-76.908074 26.360328c-37.799501 11.903437-68.208824 26.915923-75.644667 54.783209-10.217624 38.286598 139.941491 100.12891 139.941491 100.128909 29.301938-3.805447 31.836366-63.589012-12.607444-76.87002-11.347842-9.490784-46.650969-22.143893-46.650969-22.143893s16.648829-13.029849 36.041384-28.677846a315.44488 315.44488 0 0 1 44.649304-30.16958" fill="#FFE0BD" p-id="10283"></path><path d="M661.183018 151.430134s-25.363301 38.172434 6.469259 102.096326c16.431918 30.443572 45.737662 77.985016 63.037222 76.557973 15.434891-1.271019 21.828041-43.89202 13.867048-64.787727s-42.09585-72.26543-42.09585-72.26543-7.687002-36.943275-41.277679-41.601142" fill="#FFE0BD" p-id="10284"></path><path d="M712.385302 290.492567s2.827447-18.513497 31.49007-34.629563C785.19491 232.60792 825.07599 195.246046 825.07599 195.246046s16.549887-18.954929 27.810203-17.34142A63.836366 63.836366 0 0 0 884.068022 173.676775c8.040909-3.230824 4.844333 10.784636-20.435247 14.590082 15.377809 6.130574 34.34035 6.130574 43.610417 1.057914 9.601142-5.259127 3.215602 19.723629-17.699132 25.374718a243.023427 243.023427 0 0 1-50.19384 5.928885s-72.402426 109.440837-105.030325 110.35795S712.385302 290.492567 712.385302 290.492567" fill="#FFE0BD" p-id="10285"></path><path d="M879.961946 209.444167a24.297776 24.297776 0 0 1-12.664526-3.074801c-17.881793-11.012962-28.700678-1.735284-29.153526-1.335712a0.646926 0.646926 0 0 1-0.85242-0.966583c0.117969-0.095136 11.960518-10.331787 30.675704 1.202521 9.247235 5.70817 26.055892 2.378404 33.803782-4.185991 0.567012-0.380545 3.112855-1.902723 4.501843-1.027471a2.112023 2.112023 0 0 1 0.761089 2.229992 0.64312 0.64312 0 1 1-1.274824-0.148412c0.060887-0.521346 0-0.879058-0.171245-0.985611-0.502319-0.315852-2.100606 0.361517-3.044358 0.974194a37.40754 37.40754 0 0 1-22.570103 7.306458" fill="#F8A58D" p-id="10286"></path><path d="M885.692948 198.796528a39.49673 39.49673 0 0 1-10.244262-1.240576 0.646926 0.646926 0 0 1 0.380545-1.232965 40.143656 40.143656 0 0 0 29.393269-3.957664c0.213105-0.186467 2.89975-2.245213 4.753003-1.392794a3.097633 3.097633 0 0 1 1.487929 2.97586 0.646926 0.646926 0 0 1-0.616482 0.673564 0.63551 0.63551 0 0 1-0.669759-0.616483c-0.030444-0.707813-0.175051-1.602093-0.738256-1.860863-0.863836-0.380545-2.59912 0.574622-3.489595 1.282435a39.348317 39.348317 0 0 1-20.256392 5.369486" fill="#F8A58D" p-id="10287"></path><path d="M883.287906 204.173623a39.770722 39.770722 0 0 1-9.722916-1.114995 0.646926 0.646926 0 0 1 0.350101-1.244381 38.750862 38.750862 0 0 0 30.835533-5.605423c0.243549-0.159829 2.169105-1.36235 3.516233-0.627899a2.507789 2.507789 0 0 1 1.088358 2.427875 0.64312 0.64312 0 1 1-1.286241 0c0-0.494708-0.072303-1.103579-0.414794-1.293852-0.540373-0.293019-1.697229 0.247354-2.17291 0.555595a37.049828 37.049828 0 0 1-22.193364 6.90308" fill="#F8A58D" p-id="10288"></path><path d="M699.188013 959.041027c0.243549 3.672256-9.258651 7.298846-21.226781 8.097991s-21.869901-1.525984-22.117255-5.19824 9.262457-7.295041 21.230586-8.097991 21.866096 1.522179 22.109644 5.194435" fill="#FFB69C" p-id="10289"></path><path d="M695.420621 958.964919c0.178856 2.705672-7.740278 5.437983-17.687716 6.088714s-18.159591-0.974194-18.342252-3.676061 7.744084-5.437983 17.691521-6.103937 18.159591 0.985611 18.338447 3.691284" fill="#E86B6B" p-id="10290"></path><path d="M684.217386 959.269354c0.12558 1.19491-2.823641 2.488762-6.587228 2.884529s-6.910691-0.262576-7.040076-1.449875 2.827447-2.484957 6.591034-2.880723 6.910691 0.262576 7.03627 1.446069" fill="#FFFFFF" p-id="10291"></path><path d="M666.651445 479.40635l36.128909 481.073136c-23.658461 18.072066-57.036033 5.517897-57.036032 5.517898L590.287549 523.001546a9.66964 9.66964 0 0 0-19.198478 0.022833l-54.364609 442.120585a82.254727 82.254727 0 0 1-56.899037-3.405875l32.42621-484.231656c-3.15091-6.960162 1.251992-9.407064 1.251992-9.407064l7.823998-71.393983 156.483768-0.456654 7.580449 71.766917s3.702699 1.632537 1.259603 11.389701" fill="#6A91D9" p-id="10292"></path><path d="M502.507314 131.093828c26.660958 4.380069 33.408015 23.570936 33.408015 23.570936 11.29076 32.860031-7.941967 76.025211-33.811393 70.830776-11.819717-2.374599-28.601736-13.425615-44.204067-21.489356-9.232013-4.775835-18.429778-3.626591-17.170175-9.955048l-11.97574-6.328458c11.97574-36.064217 18.913069-66.751338 18.91307-66.751338a62.066833 62.066833 0 0 0 10.107266 2.374599 9.102628 9.102628 0 0 1 12.177428 1.107385c3.782614 3.481984 32.567012 6.64431 32.567012 6.644309" fill="#CFDBEF" p-id="10293"></path><path d="M657.967416 399.963848a449.921751 449.921751 0 0 1-157.123082 0.144607c-11.838744-15.351171-1.838031-40.630753-1.838031-40.630753-11.336425-110.308479-18.399334-220.000476-18.399334-220.000475s1.731478-13.54739 20.644547-9.75336c8.124628 1.613509 16.23023 2.161494 34.800809 4.277322 0.563206 0.064693 1.141634 3.386847 1.442264 3.851112 2.283268 3.322155 12.767273 16.058984 39.576644 16.058985a54.573909 54.573909 0 0 0 39.085742-15.07718 2.956832 2.956832 0 0 1 2.408847-0.235937 48.500416 48.500416 0 0 0 13.752884 4.09466c15.982875 3.207991 27.323106 4.753003 29.682483 5.270544 2.580093 0.570817 4.566536 1.720062 7.188489 2.519205 0 0-7.192294 134.043049-12.0176 192.802949-0.228327 2.797003 1.742895 6.564395 1.628731 11.378286-0.12558 5.28196-1.940778 7.561422-1.940778 12.717802 0 0 10.388869 19.590439 1.107385 32.578428" fill="#CFDBEF" p-id="10294"></path><path d="M676.659769 272.854323s-2.077774-3.200381-5.167796-8.177905c-0.913307-1.472708-2.838863-1.765727-3.904388-3.512427-0.898085-1.472708-1.312879-4.566536-2.283268-6.187656a271.971459 271.971459 0 0 1-17.615412-34.009276c-9.799025-24.583185-8.303484-71.188489 16.298727-71.188488 0 0 25.9912-2.233797 43.998573 46.297062a83.757878 83.757878 0 0 0 4.459984 9.513617c1.522179 2.873112 5.411345 3.91961 7.081936 6.750862 1.522179 2.576287 0.821976 6.963967 2.142466 9.095017 2.713283 4.372458 4.707337 7.405399 4.707338 7.405399a153.591628 153.591628 0 0 0-49.71816 44.013795" fill="#CFDBEF" p-id="10295"></path><path d="M542.662386 156.342966a0.901891 0.901891 0 0 1-0.475681-0.133191 45.029849 45.029849 0 0 1-8.444286-6.678558 0.913307 0.913307 0 0 1 1.297657-1.290047 43.214651 43.214651 0 0 0 8.09799 6.389345 0.917113 0.917113 0 0 1-0.47568 1.697229" fill="#97A4BB" p-id="10296"></path><path d="M717.929837 282.345106a0.863836 0.863836 0 0 1-0.163634 0 0.844809 0.844809 0 0 1-0.67737-1.008443c2.804614-13.996432 22.889761-24.004757 23.742181-24.423356a0.844809 0.844809 0 0 1 0.738257 1.522179c-0.201689 0.098942-20.191699 10.061601-22.832679 23.239862a0.841004 0.841004 0 0 1-0.821977 0.677369" fill="#F8A58D" p-id="10297"></path><path d="M578.890237 438.402664a0.761089 0.761089 0 0 1-0.76109-0.780117v-11.918658a0.776311 0.776311 0 1 1 1.556428 0v11.918658a0.761089 0.761089 0 0 1-0.761089 0.780117" fill="#4670B2" p-id="10298"></path><path d="M579.179451 495.233203a0.783922 0.783922 0 0 1-0.072304-1.560234c0.140802 0 14.026876-1.396599 14.361755-8.421453 0.932334-19.012011 0.932334-59.14425 0.932335-59.547627a0.780117 0.780117 0 1 1 1.560233 0c0 0.403377 0 40.573671-0.917113 59.619931-0.380545 8.371982-15.145677 9.848496-15.773576 9.894161h-0.09133" fill="#4670B2" p-id="10299"></path><path d="M624.943751 490.971102a0.783922 0.783922 0 0 1-0.34249-1.487929l10.114877-4.901415a0.780117 0.780117 0 0 1 0.677369 1.404209l-10.092044 4.916637a0.761089 0.761089 0 0 1-0.357712 0.068498" fill="#4670B2" p-id="10300"></path><path d="M588.917588 508.525627a0.783922 0.783922 0 0 1-0.34249-1.487929l28.685456-13.954573a0.780117 0.780117 0 0 1 0.681175 1.40421l-28.666429 13.958378a0.761089 0.761089 0 0 1-0.357712 0.079914" fill="#4670B2" p-id="10301"></path><path d="M578.875015 513.564039a0.761089 0.761089 0 0 1-0.380545-0.091331l-41.064573-21.999287a0.780117 0.780117 0 0 1 0.72684-1.377571l39.957189 21.386609v-63.32263a0.776311 0.776311 0 1 1 1.556427 0v64.624093a0.761089 0.761089 0 0 1-0.761089 0.780117" fill="#4670B2" p-id="10302"></path><path d="M531.158521 517.380901a0.783922 0.783922 0 0 1-0.053277-1.560233l6.903081-0.631704a0.761089 0.761089 0 0 1 0.844809 0.707813 0.761089 0.761089 0 0 1-0.688786 0.85242l-6.918302 0.627899h-0.087525" fill="#4670B2" p-id="10303"></path><path d="M547.521941 515.896777a0.783922 0.783922 0 0 1-0.053276-1.560233l24.027589-2.184326a0.761089 0.761089 0 0 1 0.844809 0.707813 0.780117 0.780117 0 0 1-0.688786 0.85242l-24.042811 2.180521h-0.087525" fill="#4670B2" p-id="10304"></path><path d="M510.281841 955.958616h-0.095136a0.783922 0.783922 0 0 1-0.684981-0.879058l14.894518-120.632656 26.33369-203.420145a0.780117 0.780117 0 1 1 1.545012 0.201689l-26.32608 203.420145-14.894517 120.625044a0.780117 0.780117 0 0 1-0.76109 0.684981" fill="#4670B2" p-id="10305"></path><path d="M552.868593 621.231538h-0.102747a0.780117 0.780117 0 0 1-0.658342-0.886669l1.548817-11.911048a0.761089 0.761089 0 0 1 0.875252-0.68498 0.783922 0.783922 0 0 1 0.673564 0.875252l-1.545011 11.922464a0.780117 0.780117 0 0 1-0.761089 0.681175" fill="#4670B2" p-id="10306"></path><path d="M555.574266 600.332025h-0.102747a0.780117 0.780117 0 0 1-0.658343-0.886669l7.854442-60.628374a0.780117 0.780117 0 1 1 1.545011 0.201688l-7.84683 60.628375a0.780117 0.780117 0 0 1-0.76109 0.681175" fill="#4670B2" p-id="10307"></path><path d="M607.012487 598.84029a0.780117 0.780117 0 0 1-0.76109-0.677369l-9.410869-69.807112a15.758354 15.758354 0 0 0-31.261743 0.08372 0.761089 0.761089 0 0 1-0.871448 0.673564 0.780117 0.780117 0 0 1-0.677369-0.875253 17.314782 17.314782 0 0 1 34.347961-0.087525l9.414674 69.799501a0.780117 0.780117 0 0 1-0.669758 0.879058h-0.106553" fill="#4670B2" p-id="10308"></path><path d="M609.900821 620.295398a0.780117 0.780117 0 0 1-0.76109-0.67737l-1.860863-13.684385a0.780117 0.780117 0 1 1 1.548817-0.2093l1.841836 13.699608a0.780117 0.780117 0 0 1-0.669759 0.879058h-0.106552" fill="#4670B2" p-id="10309"></path><path d="M651.033892 952.518492a0.780117 0.780117 0 0 1-0.761089-0.68498l-40.090379-324.326793a0.783922 0.783922 0 1 1 1.552622-0.194078l40.075157 324.330598a0.783922 0.783922 0 0 1-0.677369 0.871448h-0.095136" fill="#4670B2" p-id="10310"></path><path d="M662.339874 467.506719a0.780117 0.780117 0 0 1-0.228327-0.034249c-15.994292-4.920442-16.95707-44.097515-16.991319-45.760495a0.783922 0.783922 0 0 1 0.76109-0.799144 0.761089 0.761089 0 0 1 0.795338 0.76109c0 0.380545 0.966583 39.706029 15.887739 44.299203a0.780117 0.780117 0 0 1-0.228326 1.522179" fill="#4670B2" p-id="10311"></path><path d="M495.383518 466.897848a0.783922 0.783922 0 0 1-0.319658-1.495541c15.457724-6.922107 14.780354-40.942799 14.780355-41.281484a0.780117 0.780117 0 1 1 1.560233-0.04186c0.034249 1.44607 0.696397 35.390653-15.686051 42.754192a0.761089 0.761089 0 0 1-0.319657 0.068498" fill="#4670B2" p-id="10312"></path><path d="M684.430491 957.598763a0.783922 0.783922 0 0 1-0.152218-1.548817 56.28636 56.28636 0 0 0 15.221787-5.346652 0.787727 0.787727 0 0 1 0.761089 1.381377 57.888453 57.888453 0 0 1-15.659413 5.49887 0.761089 0.761089 0 0 1-0.156023 0" fill="#4670B2" p-id="10313"></path><path d="M669.124985 959.524319a71.618504 71.618504 0 0 1-23.39208-3.721727 0.787727 0.787727 0 0 1 0.563206-1.468902 72.021881 72.021881 0 0 0 31.022001 3.158521 0.783922 0.783922 0 0 1 0.178856 1.552622 72.748722 72.748722 0 0 1-8.371983 0.479486" fill="#4670B2" p-id="10314"></path><path d="M495.859199 958.942086a0.787727 0.787727 0 0 1 0-1.575455 138.472589 138.472589 0 0 0 20.739683-2.260435 0.783922 0.783922 0 0 1 0.380545 1.522178 139.869188 139.869188 0 0 1-21.059341 2.317517h-0.060887" fill="#4670B2" p-id="10315"></path><path d="M490.767511 958.942086h-0.045665a101.0308 101.0308 0 0 1-14.845047-1.975027 0.791533 0.791533 0 0 1 0.315852-1.548817 99.702699 99.702699 0 0 0 14.61672 1.959805 0.783922 0.783922 0 0 1-0.04186 1.564039" fill="#4670B2" p-id="10316"></path><path d="M470.948745 955.775954a0.844809 0.844809 0 0 1-0.21691-0.026638 71.333095 71.333095 0 0 1-9.041741-2.953026 0.780117 0.780117 0 0 1 0.612677-1.434654 71.542395 71.542395 0 0 0 8.843858 2.876918 0.783922 0.783922 0 0 1-0.197884 1.522179" fill="#4670B2" p-id="10317"></path><path d="M577.409918 164.55512a68.992746 68.992746 0 0 1-32.072303-6.903081 0.631704 0.631704 0 0 1 0.578427-1.107384 67.767392 67.767392 0 0 0 31.493876 6.750862 59.033892 59.033892 0 0 0 39.892496-13.825188 0.627899 0.627899 0 0 1 0.890475 0.057082 0.63551 0.63551 0 0 1-0.053277 0.890475 60.28969 60.28969 0 0 1-40.718278 14.137234" fill="#97A4BB" p-id="10318"></path><path d="M660.17077 283.342133h-0.045666a0.631704 0.631704 0 0 1-0.586039-0.677369l5.483649-77.912713a0.624093 0.624093 0 0 1 0.669758-0.589844 0.631704 0.631704 0 0 1 0.586039 0.673564l-5.479843 77.920324a0.631704 0.631704 0 0 1-0.627898 0.586038" fill="#97A4BB" p-id="10319"></path><path d="M492.42288 271.080985a0.631704 0.631704 0 0 1-0.624093-0.555596l-7.127601-57.405161a0.631704 0.631704 0 1 1 1.255797-0.152218l7.116185 57.401356a0.631704 0.631704 0 0 1-0.547984 0.704008h-0.072304" fill="#C2C0CC" p-id="10320"></path><path d="M704.23023 232.341539a0.624093 0.624093 0 0 1-0.521347-0.277798 0.631704 0.631704 0 0 1 0.16744-0.879058 85.515995 85.515995 0 0 1 15.412059-8.413842 0.631704 0.631704 0 0 1 0.479486 1.172077 84.359139 84.359139 0 0 0-15.187537 8.295874 0.624093 0.624093 0 0 1-0.350101 0.110358" fill="#97A4BB" p-id="10321"></path><path d="M672.953264 263.862053a0.631704 0.631704 0 0 1-0.525151-0.974195 128.742062 128.742062 0 0 1 27.505767-28.875728 0.631704 0.631704 0 0 1 0.76109 1.012249 127.330241 127.330241 0 0 0-27.22797 28.544654 0.627899 0.627899 0 0 1-0.528957 0.285409" fill="#97A4BB" p-id="10322"></path><path d="M667.477227 221.008919a0.586039 0.586039 0 0 1-0.148413 0 0.631704 0.631704 0 0 1-0.464264-0.761089 108.900464 108.900464 0 0 0 0.003805-49.196813 0.631704 0.631704 0 1 1 1.213938-0.338685 110.35795 110.35795 0 0 1 0 49.817101 0.631704 0.631704 0 0 1-0.612677 0.483291" fill="#97A4BB" p-id="10323"></path><path d="M484.857653 210.338447a0.631704 0.631704 0 0 1-0.616483-0.517541c-4.817695-23.544298-1.506957-53.557855-1.472708-53.858485a0.627899 0.627899 0 1 1 1.248187 0.144607c-0.030444 0.296825-3.318349 30.120109 1.457486 53.47033a0.63551 0.63551 0 0 1-0.490903 0.761089 0.620288 0.620288 0 0 1-0.129385 0" fill="#97A4BB" p-id="10324"></path><path d="M567.017244 310.84029a0.63551 0.63551 0 0 1-0.098942-1.263408c0.334879-0.057082 33.838031-5.643477 51.754073-20.035676a0.627899 0.627899 0 0 1 0.886669 0.098941 0.63551 0.63551 0 0 1-0.095136 0.909502c-18.182424 14.586277-52.005232 20.225948-52.343917 20.279225a0.487097 0.487097 0 0 1-0.102747 0" fill="#97A4BB" p-id="10325"></path><path d="M581.333333 324.711143a336.253062 336.253062 0 0 1-35.394458-1.959805 0.631704 0.631704 0 0 1 0.148413-1.255798c0.456654 0.064693 45.84802 5.392318 71.903912-1.815198a0.631704 0.631704 0 0 1 0.334879 1.221549 147.761684 147.761684 0 0 1-36.992746 3.805446" fill="#97A4BB" p-id="10326"></path><path d="M841.447021 227.314544a2.884528 2.884528 0 0 1-3.599952 0.829587 40.394815 40.394815 0 0 1-20.674991-28.361993 1.141634 1.141634 0 0 1 0.410988-0.932334c1.701035-1.598288 3.257462-2.98347 4.307765-3.870139a1.046498 1.046498 0 0 1 1.701035 0.544179 37.232489 37.232489 0 0 0 19.548579 24.937091 2.112023 2.112023 0 0 1 0.905696 3.044357c-0.650731 1.057914-1.522179 2.405042-2.59912 3.805446" fill="#303753" p-id="10327"></path><path d="M833.105482 218.782733a1.11119 1.11119 0 1 1-1.114996-1.118801 1.114996 1.114996 0 0 1 1.114996 1.118801" fill="#C1C4D6" p-id="10328"></path><path d="M837.554049 221.789036a1.11119 1.11119 0 1 1-1.114996-1.118802 1.114996 1.114996 0 0 1 1.114996 1.118802" fill="#C1C4D6" p-id="10329"></path><path d="M498.98347 419.287906s79.750743 14.506362 160.616483 0c-0.68498-11.001546-1.472708-19.324058-1.472708-19.324058s-67.207991 11.142347-157.241052 0.243549c-1.092163 10.297538-1.902723 19.080509-1.902723 19.080509" fill="#303753" p-id="10330"></path><path d="M557.773814 405.424664v21.481746a3.542871 3.542871 0 0 0 3.394458 3.561898c10.65525 0.380545 22.07159 0.456654 34.150077 0.034249a3.573314 3.573314 0 0 0 3.424902-3.565704v-21.458913a3.531454 3.531454 0 0 0-3.618979-3.550481c-10.392675 0.273992-21.668213 0.293019-33.682008-0.053277a3.558093 3.558093 0 0 0-3.66845 3.550482" fill="#FFFFFF" p-id="10331"></path><path d="M562.633369 409.492686v13.452254a2.804614 2.804614 0 0 0 2.701867 2.823641c7.968605 0.25877 16.53086 0.30063 25.561185 0.026638a2.835058 2.835058 0 0 0 2.739921-2.831252v-13.433226a2.797003 2.797003 0 0 0-2.842668-2.816031c-7.812582 0.178856-16.260673 0.194078-25.26436-0.034249a2.823641 2.823641 0 0 0-2.895945 2.812225" fill="#303753" p-id="10332"></path><path d="M441.361399 190.892615a0.601261 0.601261 0 0 1-0.16744-0.022833 0.627899 0.627899 0 0 1-0.437626-0.761089c6.541563-23.784041 14.102985-54.745154 14.179093-55.053395a0.631704 0.631704 0 1 1 1.221549 0.30063c-0.076109 0.308241-7.641337 31.288381-14.186705 55.064812a0.627899 0.627899 0 0 1-0.605066 0.464264" fill="#97A4BB" p-id="10333"></path><path d="M484.14984 216.41955a0.627899 0.627899 0 0 1-0.559401-0.338684c-7.230348-13.88988-14.453086-31.071471-14.52539-31.242716a0.631704 0.631704 0 1 1 1.160662-0.498514c0.072303 0.178856 7.276014 17.310976 14.479724 31.155191a0.627899 0.627899 0 0 1-0.555595 0.924723" fill="#97A4BB" p-id="10334"></path><path d="M394.090142 136.695445h-0.673564a0.841004 0.841004 0 0 1-0.799144-0.89428 0.821976 0.821976 0 0 1 0.879058-0.802949c12.771079 0.586039 35.120466-18.604828 35.344987-18.779879a0.837198 0.837198 0 0 1 1.183494 0.087526 0.844809 0.844809 0 0 1-0.087525 1.187299c-0.920918 0.802949-22.37222 19.202283-35.847306 19.202283" fill="#F8A58D" p-id="10335"></path><path d="M243.421097 199.325485l-38.785112 124.152693h23.449162l38.788917-124.152693z" fill="#CFDBEF" p-id="10336"></path><path d="M188.127958 213.888929H146.873112a2.283268 2.283268 0 0 0-2.252824 2.283267v92.571293a2.283268 2.283268 0 0 0 2.252824 2.283268h41.254846a2.283268 2.283268 0 0 0 2.252825-2.283268v-13.901296a2.283268 2.283268 0 0 0-2.252825-2.283268h-25.306219V232.368177h25.306219a2.283268 2.283268 0 0 0 2.252825-2.283268V216.172196a2.283268 2.283268 0 0 0-2.252825-2.283267" fill="#CFDBEF" p-id="10337"></path><path d="M326.223808 213.888929H284.968962a2.283268 2.283268 0 0 0-2.252824 2.283267v13.912713a2.283268 2.283268 0 0 0 2.252824 2.283268h25.306219v60.183137H284.968962a2.283268 2.283268 0 0 0-2.252824 2.283268v13.901296a2.283268 2.283268 0 0 0 2.252824 2.283268h41.254846a2.283268 2.283268 0 0 0 2.252824-2.283268V216.172196a2.283268 2.283268 0 0 0-2.252824-2.283267" fill="#CFDBEF" p-id="10338"></path><path d="M1313.212035 887.156142h-46.175289v-159.786895a22.996313 22.996313 0 0 1 22.96587-23.026757h0.247354a22.996313 22.996313 0 0 1 22.96587 23.026757z" fill="#38AD21" p-id="10339"></path><path d="M1337.410869 926.002141h-46.548222v-83.89868a22.558687 22.558687 0 0 1 22.577715-22.543466h1.396598a22.558687 22.558687 0 0 1 22.573909 22.543466z" fill="#53D332" p-id="10340"></path><path d="M1268.151742 886.368415h-46.548222v-90.695208a22.513022 22.513022 0 0 1 22.486384-22.53966h1.57926a22.513022 22.513022 0 0 1 22.486384 22.53966z" fill="#53D332" p-id="10341"></path><path d="M1215.393031 1020.194553a8.843858 8.843858 0 0 1-9.053157-8.623141v-119.749792a8.843858 8.843858 0 0 1 9.053157-8.623142h126.500654a8.843858 8.843858 0 0 1 9.053158 8.623142v119.749792a8.843858 8.843858 0 0 1-9.053158 8.623141z" fill="#CFDBEF" p-id="10342"></path><path d="M1282.913069 739.162326a4.539898 4.539898 0 1 1-4.543703-4.528481 4.536092 4.536092 0 0 1 4.543703 4.528481" fill="#53D332" p-id="10343"></path><path d="M1306.757997 785.588774a4.539898 4.539898 0 1 1-4.543703-4.528481 4.536092 4.536092 0 0 1 4.543703 4.528481" fill="#53D332" p-id="10344"></path><path d="M1236.368653 808.234986a4.539898 4.539898 0 1 1-4.543703-4.528481 4.536092 4.536092 0 0 1 4.543703 4.528481" fill="#38AD21" p-id="10345"></path><path d="M1259.071947 854.661434a4.539898 4.539898 0 1 1-4.543703-4.528481 4.536092 4.536092 0 0 1 4.543703 4.528481" fill="#38AD21" p-id="10346"></path><path d="M1385.793317 641.274825l102.773695-0.04186a15.819241 15.819241 0 0 0 0-31.642288L1385.778095 609.632537a15.819241 15.819241 0 0 0 0 31.642288" fill="#E3EAF5" p-id="10347"></path><path d="M1424.841004 703.394934l102.895469-0.04186a15.754549 15.754549 0 1 0 0-31.512903L1424.829587 671.882031a15.754549 15.754549 0 1 0 0 31.512903" fill="#CFDBEF" opacity=".76" p-id="10348"></path><path d="M1433.639196 641.461291l54.15531-0.030443a15.625164 15.625164 0 1 0 0 31.254132l-54.15531 0.022833a15.67844 15.67844 0 0 0 15.602331-15.63658 15.67844 15.67844 0 0 0-15.602331-15.609942" fill="#E3EAF5" p-id="10349"></path><path d="M209.545011 819.700797A17.280533 17.280533 0 1 1 194.102509 800.764895 17.280533 17.280533 0 0 1 209.545011 819.700797" fill="#CFDBEF" p-id="10350"></path><path d="M320.546082 756.446664a17.421334 17.421334 0 1 1-15.55286-19.057676 17.406112 17.406112 0 0 1 15.55286 19.057676" fill="#CFDBEF" p-id="10351"></path><path d="M95.651802 750.129623a17.421334 17.421334 0 1 1-15.55286-19.057676 17.409918 17.409918 0 0 1 15.55286 19.057676" fill="#CFDBEF" p-id="10352"></path><path d="M418.524914 796.057557a18.802711 18.802711 0 0 1-20.686408 16.641218A18.699964 18.699964 0 0 1 381.007016 792.252111 18.802711 18.802711 0 0 1 401.689618 775.607088a18.70377 18.70377 0 0 1 16.835296 20.450469" fill="#CFDBEF" p-id="10353"></path><path d="M192.591747 819.438221l-0.42621-0.266381-112.260673-70.952551 0.89428-1.442264 111.842074 70.689975 113.276727-64.068498 0.380545 0.148412 96.688786 38.355096-0.616483 1.57926-96.327268-38.210489z" fill="#CFDBEF" p-id="10354"></path><path d="M959.225592 135.382566m14.799381 0l476.67404 0q14.799382 0 14.799382 14.799382l0 340.724462q0 14.799382-14.799382 14.799381l-476.67404 0q-14.799382 0-14.799381-14.799381l0-340.724462q0-14.799382 14.799381-14.799382Z" fill="#CFDBEF" p-id="10355"></path><path d="M1110.412178 468.869069a5.061244 5.061244 0 0 1-5.061244-5.061244v-254.314187a5.061244 5.061244 0 0 1 5.061244-5.061244h308.069925a5.061244 5.061244 0 0 1 5.061244 5.061244v255.307408a4.121299 4.121299 0 0 1-4.185992 4.068023z" fill="#FFFFFF" p-id="10356"></path><path d="M1136.749673 404.682602a4.121299 4.121299 0 0 1-4.185991-4.068022v-165.2401a4.121299 4.121299 0 0 1 4.185991-4.068023h256.867642a4.121299 4.121299 0 0 1 4.185991 4.068023v165.2401a4.121299 4.121299 0 0 1-4.185991 4.068022z" fill="#CED7EC" p-id="10357"></path><path d="M1168.837198 255.204662h-18.212867a2.519206 2.519206 0 0 1-2.549649-2.484957 2.519206 2.519206 0 0 1 2.549649-2.488762h18.212867a2.519206 2.519206 0 0 1 2.54965 2.488762 2.519206 2.519206 0 0 1-2.54965 2.488762" fill="#B2BED9" p-id="10358"></path><path d="M1169.134023 267.142347h-18.212867a2.519206 2.519206 0 0 1-2.549649-2.484956 2.519206 2.519206 0 0 1 2.549649-2.488762h18.212867a2.519206 2.519206 0 0 1 2.549649 2.488762 2.519206 2.519206 0 0 1-2.549649 2.488762" fill="#B2BED9" p-id="10359"></path><path d="M1132.563682 358.895469c27.600904 0 20.271614-34.096801 62.078249-34.096801s39.626115 30.485432 72.231181 30.485432c33.130218-0.007611 30.923059-87.56713 62.645261-87.56713 33.48793 0 25.926507 79.34356 67.638007 79.34356v53.77096a4.121299 4.121299 0 0 1-4.185991 4.068022l-256.220716-0.21691a4.121299 4.121299 0 0 1-4.185991-4.068022z" fill="#303753" p-id="10360"></path><path d="M972.788203 118.303722h478.896421a13.395172 13.395172 0 0 1 13.562611 13.220122v39.401593H959.225592v-39.401593a13.395172 13.395172 0 0 1 13.562611-13.220122z" fill="#303753" p-id="10361"></path><path d="M978.530622 144.61458a9.677251 9.437507 0 1 0 19.354501 0 9.677251 9.437507 0 1 0-19.354501 0Z" fill="#FFFFFF" p-id="10362"></path><path d="M1014.682364 144.61458a9.677251 9.437507 0 1 0 19.354501 0 9.677251 9.437507 0 1 0-19.354501 0Z" fill="#FFFFFF" p-id="10363"></path><path d="M1050.841717 144.61458a9.677251 9.437507 0 1 0 19.354501 0 9.677251 9.437507 0 1 0-19.354501 0Z" fill="#FFFFFF" p-id="10364"></path><path d="M1127.315971 330.963491l-6.22571-4.566535 6.22571-4.566536 6.229516 4.566536-6.229516 4.566535z" fill="#FFFFFF" p-id="10365"></path><path d="M995.251754 307.301225m3.995719 0l64.445237 0q3.995719 0 3.995719 3.995719l0 9.840885q0 3.995719-3.995719 3.995718l-64.445237 0q-3.995719 0-3.995719-3.995718l0-9.840885q0-3.995719 3.995719-3.995719Z" fill="#FFFFFF" p-id="10366"></path><path d="M995.251754 341.630158m3.934832 0l64.567011 0q3.934832 0 3.934832 3.934832l0 9.422286q0 3.934832-3.934832 3.934831l-64.567011 0q-3.934832 0-3.934832-3.934831l0-9.422286q0-3.934832 3.934832-3.934832Z" fill="#FFFFFF" p-id="10367"></path><path d="M995.251754 375.2665m3.934832 0l64.567011 0q3.934832 0 3.934832 3.934832l0 9.422286q0 3.934832-3.934832 3.934831l-64.567011 0q-3.934832 0-3.934832-3.934831l0-9.422286q0-3.934832 3.934832-3.934832Z" fill="#FFFFFF" p-id="10368"></path><path d="M995.308836 242.916875a36.163159 35.257462 0 1 0 72.326317 0 36.163159 35.257462 0 1 0-72.326317 0Z" fill="#FFFFFF" p-id="10369"></path><path d="M1031.456773 278.174337a35.641812 35.641812 0 0 0 27.01867-12.264954 30.656677 30.656677 0 0 0-27.01867-15.89535 30.656677 30.656677 0 0 0-27.018671 15.902961 35.653229 35.653229 0 0 0 27.018671 12.257343z" fill="#303753" p-id="10370"></path><path d="M1018.061601 238.156261a13.600666 13.261981 0 1 0 27.201332 0 13.600666 13.261981 0 1 0-27.201332 0Z" fill="#303753" p-id="10371"></path><path d="M1465.110239 4.140326a114.163396 114.163396 0 1 0 114.163396 114.163396A114.163396 114.163396 0 0 0 1465.110239 4.140326" fill="#597EF7" p-id="10372"></path><path d="M1492.064217 73.509811a28.221192 28.221192 0 0 1 9.083601 22.022119 30.622428 30.622428 0 0 1-5.70817 18.78749 144.093233 144.093233 0 0 1-13.090736 12.009989 26.771316 26.771316 0 0 0-6.313236 7.854442 20.865263 20.865263 0 0 0-2.462124 10.316565v3.653229a2.762754 2.762754 0 0 1-2.762754 2.762754h-10.936853a2.762754 2.762754 0 0 1-2.762755-2.762754v-3.653229a32.627899 32.627899 0 0 1 2.926389-14.628136c2.157688-4.311571 7.991438-10.624807 17.554525-19.095731l2.618147-2.926388a17.85135 17.85135 0 0 0 4.147937-11.24129 17.539303 17.539303 0 0 0-4.459984-12.615055 17.505054 17.505054 0 0 0-12.938518-4.619812 17.322393 17.322393 0 0 0-15.092401 6.469259 24.183613 24.183613 0 0 0-4.079439 13.25437 2.755143 2.755143 0 0 1-2.758948 2.59151h-10.799858a2.762754 2.762754 0 0 1-2.766559-2.89214 34.013081 34.013081 0 0 1 9.779997-23.593768 35.558093 35.558093 0 0 1 26.638126-9.856107 34.595315 34.595315 0 0 1 24.176002 8.162683" fill="#FFFFFF" p-id="10373"></path><path d="M1466.69711 175.994292h-4.079438a6.115353 6.115353 0 0 1-6.115353-6.115353v-4.079438a6.115353 6.115353 0 0 1 6.115353-6.115353h4.079438a6.115353 6.115353 0 0 1 6.115353 6.115353v4.079438a6.115353 6.115353 0 0 1-6.115353 6.115353" fill="#FFFFFF" p-id="10374"></path><path d="M0.013319 1020.194553h1666.785587v3.805447h-1666.785587z" fill="#CFDBEF" p-id="10375"></path></svg>