<svg t="1725548450055" class="icon" viewBox="0 0 1024 1024" version="1.1" xmlns="http://www.w3.org/2000/svg" p-id="4481" width="200" height="200"><path d="M511.81 118c22.66 0 41.013 18.364 41.013 41.025l-0.001 311.96h312.153c22.661 0 41.025 18.356 41.025 41.017 0 22.66-18.364 41.013-41.025 41.013H552.822v311.957c0 22.663-18.351 41.028-41.011 41.028-22.662 0-41.017-18.365-41.017-41.028l-0.001-311.957H159.028c-22.663 0-41.028-18.352-41.028-41.013 0-22.661 18.365-41.017 41.028-41.017h311.765v-311.96c0-22.661 18.356-41.025 41.018-41.025z" fill="#191F39" p-id="4482"></path></svg>